<?xml version="1.0" encoding="utf-8"?>
<!-- Generator: Adobe Illustrator 24.0.0, SVG Export Plug-In . SVG Version: 6.00 Build 0)  -->
<svg version="1.1" id="Layer_1" xmlns="http://www.w3.org/2000/svg" xmlns:xlink="http://www.w3.org/1999/xlink" x="0px" y="0px"
	 viewBox="0 0 1920 1080" style="enable-background:new 0 0 1920 1080;" xml:space="preserve">
<style type="text/css">
	.st0{opacity:0.15;fill:url(#SVGID_1_);enable-background:new    ;}
	.st1{fill:url(#SVGID_2_);}
	.st2{opacity:4.000000e-02;enable-background:new    ;}
	.st3{fill:#FFFFFF;}
</style>
<linearGradient id="SVGID_1_" gradientUnits="userSpaceOnUse" x1="-146.8889" y1="341.5448" x2="1745.5776" y2="1346.5811" gradientTransform="matrix(1 0 0 -1 0 1079)">
	<stop  offset="2.793408e-03" style="stop-color:#3A84FF"/>
	<stop  offset="0.3521" style="stop-color:#3878F6"/>
	<stop  offset="0.9834" style="stop-color:#3158DD"/>
	<stop  offset="1" style="stop-color:#3157DC"/>
</linearGradient>
<path class="st0" d="M1921,30H1c0,241.3,0,482.6,0,723.8c115.1,42.7,222.8,65.9,320.2,77c812.9,93.3,1457.5-589,1599.8-746.6
	C1921,66.2,1921,48.1,1921,30z"/>
<linearGradient id="SVGID_2_" gradientUnits="userSpaceOnUse" x1="-147.8836" y1="371.5476" x2="1744.5831" y2="1376.584" gradientTransform="matrix(1 0 0 -1 0 1079)">
	<stop  offset="2.793408e-03" style="stop-color:#3A84FF"/>
	<stop  offset="0.3521" style="stop-color:#3878F6"/>
	<stop  offset="0.9834" style="stop-color:#3158DD"/>
	<stop  offset="1" style="stop-color:#3157DC"/>
</linearGradient>
<path class="st1" d="M1920,0H0c0,241.3,0,482.6,0,723.8c115.1,42.7,222.8,65.9,320.2,77c812.9,93.3,1457.5-589,1599.8-746.6
	C1920,36.2,1920,18.1,1920,0z"/>
<g class="st2">
	<g transform="matrix(1 0 0 1 -110 -109)">
		<path class="st3" d="M0,1v650.7c214.9,21.7,480.7-29.3,741.6-157.4C1002.8,366.1,1207.7,185.9,1324.7,1H0z"/>
	</g>
</g>
<g class="st2">
	<g transform="matrix(1 0 0 1 -109 -110)">
		<path class="st3" d="M1,0.3V592c131.8,8.4,303.7-58.3,453.7-188.4C597.4,279.8,686.1,128.2,703.1,0.3H1z"/>
	</g>
</g>
</svg>
